<?xml version="1.0" standalone="no"?>
<!DOCTYPE svg PUBLIC "-//W3C//DTD SVG 20010904//EN"
 "http://www.w3.org/TR/2001/REC-SVG-20010904/DTD/svg10.dtd">
<svg version="1.0" xmlns="http://www.w3.org/2000/svg"
 width="41.000000pt" height="106.000000pt" viewBox="0 0 41.000000 106.000000"
 preserveAspectRatio="xMidYMid meet">
<metadata>
Created by potrace 1.10, written by Peter Selinger 2001-2011
</metadata>
<g transform="translate(0.000000,106.000000) scale(0.100000,-0.100000)"
fill="#000000" stroke="none">
<path d="M40 940 c0 -107 -2 -122 -20 -140 -19 -19 -20 -31 -18 -133 l3 -112
38 0 c37 0 37 0 37 -42 l0 -43 120 0 120 0 0 43 0 43 40 -4 40 -4 0 121 c0
110 -2 122 -20 133 -18 12 -20 24 -20 135 l0 123 -160 0 -160 0 0 -120z m302
-21 c-3 -115 -2 -121 17 -126 12 -3 21 -8 22 -12 0 -3 1 -32 2 -64 l2 -57
-182 0 -183 0 0 60 c0 50 3 61 21 70 19 11 20 19 17 131 l-3 119 145 0 145 0
-3 -121z m43 -314 c0 -35 -1 -35 -42 -35 l-43 0 0 -44 0 -44 -100 1 -100 0 0
44 0 43 -40 0 c-39 0 -40 1 -40 35 l0 35 183 0 182 0 0 -35z"/>
<path d="M140 616 c-14 -14 -12 -100 2 -114 16 -16 100 -16 116 0 16 16 16
105 0 114 -18 11 -107 11 -118 0z m110 -56 l0 -50 -50 0 -50 0 0 50 0 50 50 0
50 0 0 -50z"/>
<path d="M7 443 c-4 -3 -7 -41 -7 -83 0 -64 3 -80 20 -95 18 -16 20 -31 20
-137 l0 -118 160 0 160 0 0 118 c0 105 2 119 20 135 17 14 20 29 20 102 l0 85
-193 0 c-107 0 -197 -3 -200 -7z m374 -88 c-2 -56 -6 -73 -22 -85 -18 -14 -20
-27 -18 -129 l1 -112 -142 0 -142 0 1 115 c2 106 1 116 -18 126 -18 9 -21 20
-21 86 l0 74 182 -2 182 -3 -3 -70z"/>
</g>
</svg>
